<svg xmlns="http://www.w3.org/2000/svg" width="250" height="54" viewBox="0 0 250 54">
    <g fill="#FFF" fill-rule="evenodd">
        <path d="M140.565 25.93c0 3.409-1.452 6.33-4.357 8.764-2.547 2.15-5.647 3.517-9.3 4.105a2.82 2.82 0 0 1-.33.025c-.391 0-1.257-1.18-2.6-3.538-1.341-2.359-2.012-3.799-2.012-4.319 0-.185.127-.302.382-.353 2.463-.554 4.094-1.024 4.892-1.41 1.767-.873 2.65-2.166 2.65-3.878 0-1.091-.578-2.308-1.733-3.652-2.004-2.283-3.091-3.55-3.26-3.802-1.173-1.746-1.759-3.677-1.759-5.792 0-3.073 1.435-5.625 4.306-7.656 2.344-1.679 5.223-2.77 8.637-3.274a5.19 5.19 0 0 1 .433-.025c.255 0 .459.201.612.604.441 1.226 1.469 3.442 3.083 6.649.05.1.076.184.076.252 0 .285-.153.428-.459.428-.136 0-.365-.025-.688-.076a5.194 5.194 0 0 0-.738-.075c-1.223 0-2.293.277-3.21.83-1.105.639-1.657 1.528-1.657 2.67 0 1.024.612 2.283 1.835 3.778a880.376 880.376 0 0 1 3.388 4.23c1.206 1.847 1.81 3.685 1.81 5.515zm20.918-4.986c-.017 0-.53-.134-1.541-.403-1.011-.268-1.83-.403-2.46-.403-1.51 0-2.717.45-3.617 1.348-.9.898-1.35 2.094-1.35 3.588 0 1.545.492 2.758 1.477 3.64.986.88 2.268 1.321 3.848 1.321.747 0 1.588-.189 2.522-.566.934-.378 1.376-.567 1.325-.567.289 0 .662 1.066 1.12 3.198.392 1.948.587 3.24.587 3.878 0 .638-1.053 1.184-3.16 1.637-1.63.353-2.946.53-3.949.53-3.736 0-6.82-1.243-9.248-3.728-2.43-2.485-3.644-5.582-3.644-9.292 0-3.677 1.22-6.77 3.656-9.28 2.438-2.51 5.517-3.765 9.236-3.765 2.531 0 4.756.537 6.676 1.611.441.235.662.462.662.68 0 .219-.255 1.21-.764 2.972-.476 1.696-.786 2.72-.93 3.072-.145.353-.293.53-.446.53zm29.351 4.18c0 3.828-1.185 6.934-3.554 9.318-2.37 2.384-5.482 3.576-9.338 3.576-3.737 0-6.811-1.175-9.223-3.525-2.412-2.35-3.618-5.373-3.618-9.066 0-3.895 1.155-7.056 3.465-9.482 2.31-2.426 5.435-3.639 9.376-3.639 3.839 0 6.947 1.188 9.325 3.564 2.378 2.375 3.567 5.46 3.567 9.255zm-8.357 0c0-1.326-.416-2.497-1.248-3.513-.833-1.015-1.911-1.523-3.236-1.523-1.342 0-2.446.52-3.312 1.561-.816.974-1.223 2.132-1.223 3.476 0 1.36.407 2.526 1.223 3.5.866 1.04 1.97 1.561 3.312 1.561 1.325 0 2.42-.52 3.287-1.561.798-.974 1.197-2.14 1.197-3.5zm35.95 0c0 3.828-1.185 6.934-3.554 9.318-2.37 2.384-5.482 3.576-9.338 3.576-3.737 0-6.811-1.175-9.223-3.525-2.412-2.35-3.618-5.373-3.618-9.066 0-3.895 1.155-7.056 3.465-9.482 2.31-2.426 5.435-3.639 9.376-3.639 3.839 0 6.947 1.188 9.325 3.564 2.378 2.375 3.567 5.46 3.567 9.255zm-8.357 0c0-1.326-.416-2.497-1.248-3.513-.833-1.015-1.911-1.523-3.236-1.523-1.342 0-2.446.52-3.312 1.561-.815.974-1.223 2.132-1.223 3.476 0 1.36.408 2.526 1.223 3.5.866 1.04 1.97 1.561 3.312 1.561 1.325 0 2.42-.52 3.287-1.561.798-.974 1.197-2.14 1.197-3.5zm20.882-9.62c-.126-.02.604-.478 2.189-1.372 1.622-.915 3.095-1.372 4.42-1.372 3.686 0 6.633 1.2 8.841 3.6 2.14 2.318 3.21 5.331 3.21 9.042 0 3.592-1.07 6.572-3.21 8.94-2.208 2.45-5.104 3.676-8.688 3.676-1.308 0-2.709-.319-4.204-.957-1.494-.638-2.174-.957-2.038-.957-.22 0-.331.252-.331.756 0 .856.042 2.145.127 3.865.085 1.721.128 3.01.128 3.866 0 .537-.28.806-.841.806l-5.198.025c-1.172 0-1.928-.042-2.267-.126-.51-.117-.765-.428-.765-.932l.051-19.39c0-3.912-.297-7.211-.891-9.898a2.216 2.216 0 0 1-.051-.428c0-.251.101-.42.305-.503.663-.252 1.928-.52 3.797-.806 1.817-.286 3.133-.428 3.949-.428.662 0 1.04.432 1.134 1.297.09.845.203 1.277.335 1.296h-.002zm9.208 9.847c0-1.343-.416-2.518-1.248-3.525-.9-1.058-2.013-1.587-3.338-1.587-1.359 0-2.446.529-3.261 1.587-.714.957-1.07 2.132-1.07 3.525 0 1.427.373 2.61 1.12 3.551.8 1.024 1.903 1.536 3.313 1.536 2.99 0 4.484-1.695 4.484-5.087zM76.293 31.12c0-4.002.78-9.063 2.338-15.18.104-.326 0-.472-.312-.44a1.38 1.38 0 0 0-.675.293c-1.524 1.204-3.203 3.433-5.039 6.687-1.836 3.255-3.307 6.224-4.416 8.909-1.108 2.684-1.662 4.254-1.662 4.71 0 .39-.26.586-.78.586-1.038 0-1.558-1.286-1.558-3.856 0-4.882.52-9.283 1.559-13.204 1.039-3.921 2.303-5.882 3.792-5.882.658 0 .987.342.987 1.025a79.7 79.7 0 0 0-3.429 14.546h.468c4.571-10.739 8.78-16.108 12.624-16.108 1.662 0 2.493.765 2.493 2.294-1.628 4.556-2.805 9.047-3.532 13.472h.415a79.39 79.39 0 0 1 3.455-6.223 30.958 30.958 0 0 1 4.078-5.223c1.558-1.61 2.96-2.416 4.208-2.416 1.662 0 2.493.748 2.493 2.245-1.8 5.63-2.701 11.113-2.701 16.45 0 3.45.554 5.174 1.662 5.174.381 0 .762-.155 1.143-.464.381-.309.64-.464.78-.464.484 0 .467.358-.053 1.074-.138.228-.441.537-.909.928-.467.39-.926.586-1.376.586-1.351 0-2.399-.887-3.143-2.66-.745-1.774-1.117-4.077-1.117-6.908 0-4.979.554-9.355 1.662-13.13.07-.228-.017-.342-.26-.342a1.36 1.36 0 0 0-.623.293c-1.974 1.595-4.173 4.548-6.597 8.86-2.425 4.311-3.637 6.858-3.637 7.639 0 .39-.277.585-.831.585-1.004 0-1.507-1.285-1.507-3.856zm23.274 21.233c3.117 0 5.558-1.383 7.324-4.149 1.524-2.44 2.702-5.483 3.533-9.127-6.269.13-11.083 2.375-14.442 6.736-.127.158-.464.563-.789 1.106-.122.206-.2.389-.264.55-.043.106-.102.26-.18.463H93.63c.183-.63.328-1.039.435-1.229.304-.54.669-1.131.722-1.232 1.49-2.115 3.567-3.913 6.234-5.394 2.667-1.48 5.905-2.286 9.715-2.416.38-1.627.744-3.53 1.09-5.711.347-2.18.745-4.296 1.195-6.346h-.467c-4.502 7.517-7.931 11.276-10.286 11.276-2.632 0-3.948-1.904-3.948-5.711 0-3.807.866-7.64 2.597-11.495 1.732-3.857 3.308-5.931 4.728-6.224l.311-.049c.59 0 .883.358.883 1.074a260.14 260.14 0 0 0-1.454 3.441c-.589 1.416-1.368 3.743-2.338 6.98-.97 3.238-1.454 5.76-1.454 7.566 0 1.807.415 2.71 1.246 2.71.97 0 2.529-1.579 4.676-4.735 3.151-4.621 5.887-9.307 8.208-14.058 1.004-1.985 2.078-2.978 3.22-2.978.728 0 1.092.375 1.092 1.123-.658 1.139-1.455 3.27-2.39 6.394a90.496 90.496 0 0 0-2.286 9.446c-.589 3.172-1.09 5.654-1.506 7.443 2.632.423 4.156 1.497 4.571 3.222.07.293.104.692.104 1.196s-.208.944-.623 1.318c-.416.374-.78.561-1.091.561.069-.228.086-.626.052-1.196-.035-.57-.148-1.05-.338-1.44-.19-.39-.545-.797-1.065-1.22-.52-.423-1.195-.732-2.026-.927-2.667 9.437-7.29 14.155-13.87 14.155-2.84 0-4.691-.916-5.626-2.803-.035-.098-.012-.028-.088-.239-.076-.21-.303-1.024-.303-1.339v-.626c0-.143.027-.322.08-.537h1.12a3.965 3.965 0 0 0-.086.402c-.029.237-.034.44-.034.52 0 .176.038.498.072.601.159.495.302.848.39.98.623 1.334 2.189 1.918 4.475 1.918zM26.663 40.715c-7.947 0-14.389-6.44-14.389-14.385 0-7.945 6.442-14.386 14.389-14.386 7.947 0 14.389 6.44 14.389 14.386 0 7.944-6.442 14.385-14.39 14.385M26.465 0C12 0 .248 11.601.006 26.004L0 25.992V54s4.457-6.499 10.19-6.679a26.353 26.353 0 0 0 16.274 5.593c14.616 0 26.464-11.845 26.464-26.457S41.08 0 26.464 0"/>
    </g>
</svg>
